<svg width="387" height="376" viewBox="0 0 387 376" fill="none" xmlns="http://www.w3.org/2000/svg">
<path opacity="0.25" d="M36.2544 376C12.6627 337.981 4.30527e-05 294.408 4.30527e-05 249.031C4.30527e-05 182.517 27.0589 119.971 76.2022 72.9347C125.421 25.8987 190.769 0 260.263 0C305.336 0 348.6 10.8933 386.89 31.3814V376H36.2544Z" fill="#1C7BA5"/>
<path opacity="0.25" d="M64.1435 375.999C37.763 338.847 23.5929 294.985 23.5929 249.031C23.5929 188.505 48.2398 131.585 92.936 88.8056C137.632 46.026 197.101 22.4358 260.339 22.4358C305.865 22.4358 349.43 34.6276 386.966 57.4964V375.999H64.1435Z" fill="#1C7BA5"/>
<path opacity="0.25" d="M93.2363 376C63.2379 340.002 46.9573 295.707 46.9573 249.032C46.9573 194.493 69.117 143.273 109.442 104.677C149.691 66.1537 203.281 44.8721 260.263 44.8721C306.467 44.8721 350.409 58.8675 386.89 84.694V376H93.2363Z" fill="#1C7BA5"/>
<path d="M127.305 375.999C93.3871 343.464 72.4334 298.592 72.4334 249.031C72.4334 149.765 156.55 69.2554 260.263 69.2554C309.029 69.2554 353.499 87.0743 386.89 116.219V375.999H127.305Z" fill="#47C0BA"/>
<path d="M112.909 137.573C175.167 139.882 237.425 142.262 299.608 144.571C325.837 145.581 352.218 146.518 378.071 142.334C381.01 141.829 383.95 141.324 386.89 140.675V198.532C371.664 205.746 356.213 211.734 339.48 211.951C322.898 212.167 304.582 206.973 290.789 215.774C281.669 221.617 277.297 232.15 273.453 242.033C267.876 256.462 262.298 270.818 256.72 285.246C254.911 290.007 252.876 294.985 248.58 298.015C243.832 301.406 237.5 301.478 231.546 301.406C214.135 301.117 196.497 300.323 179.915 295.201C163.333 290.079 147.806 279.98 139.817 265.191C129.34 245.785 130.018 217.505 108.989 209.065C98.3616 204.809 87.2818 207.983 76.2773 212.528C82.3825 184.609 95.1206 159.143 112.909 137.573Z" fill="#00B3B6"/>
<path d="M314.079 318.215C317.471 314.68 322.144 312.443 325.837 309.125C342.118 294.48 332.395 267.644 341.364 248.021C347.771 234.098 363.072 225.657 378.448 221.762C381.237 221.04 384.101 220.463 386.89 219.958V342.454C374.905 341.155 362.77 343.32 351.163 346.71C341.515 349.452 331.114 353.059 321.767 349.596C309.406 345.051 305.11 327.521 314.079 318.215Z" fill="#00B3B6"/>
<path d="M127.305 376C121.351 370.229 115.698 364.169 110.572 357.676C129.868 351.327 149.54 346.566 169.815 346.638C195.593 346.783 222.802 356.738 237.952 376H127.305V376Z" fill="#00B3B6"/>
</svg>
