<svg width="65" height="54" viewBox="0 0 65 54" fill="none" xmlns="http://www.w3.org/2000/svg">
<path d="M20.6545 27.0005L7.48561 38.5031L7.26271 46.4843L20.3352 38.4323L20.6545 27.0005Z" fill="#CE4131"/>
<path d="M6.36328 47.7833L6.62716 38.3322L21.5609 25.2976L21.1882 38.6491L6.36328 47.7833ZM8.34371 38.6599L8.16151 45.1857L19.475 38.2014L19.7401 28.7053L8.34371 38.6599Z" fill="#1F2121"/>
<path d="M7.53389 30.7759L6.96275 51.7947L1.32891 48.1862L1.49663 42.0139L7.53389 30.7759Z" fill="#07BDE3"/>
<path d="M7.77043 53.0616L0.458575 48.4063L0.634788 41.934L8.46998 27.3669L7.77043 53.0616ZM2.16615 47.9845L6.14362 50.5169L6.58863 34.1712L2.32646 42.0965L2.16615 47.9845Z" fill="#1F2121"/>
<path d="M38.9352 14.8858L33.1621 2.43932L26.724 14.7959L20.8526 27.0966L20.5349 38.5233L31.9496 46.0467L43.778 38.6944L44.0957 27.2677L38.9352 14.8858Z" fill="#07BDE3"/>
<path d="M31.9226 46.8133L19.6602 38.7285L19.9855 27.0316L20.0122 26.9568L25.8851 14.6557L33.2076 0.610455L39.7464 14.7428L44.9553 27.2004L44.63 38.8973L31.9226 46.8133ZM21.3922 38.3213L31.9647 45.2987L42.9209 38.4798L43.2308 27.3377L38.0915 15.0306L33.1304 4.26967L27.5479 14.968L21.7267 27.1794L21.4168 38.3215L21.3922 38.3213Z" fill="#1F2121"/>
<path d="M37.2325 28.5886L32.6591 23.6566L27.8351 28.52L23.433 33.3714L23.3058 37.8934L32.1742 40.9033L41.2329 38.0243L41.36 33.5023L37.2325 28.5886Z" fill="#CE4131"/>
<path d="M32.1549 41.5052L22.4266 38.2035L22.566 33.2458L27.0711 28.2599L32.6863 22.6059L38.0056 28.3547L42.229 33.3893L42.0896 38.347L32.1549 41.5052ZM24.1801 37.5852L32.1887 40.3033L40.3468 37.7032L40.4613 33.6319L36.4543 28.8393L32.6275 24.6941L28.5693 28.7817L24.2945 33.5139L24.1801 37.5852V37.5852Z" fill="#1F2121"/>
<path d="M44.5638 27.3049L57.0849 38.996L56.862 46.9773L44.2445 38.7367L44.5638 27.3049Z" fill="#CE4131"/>
<path d="M57.6842 48.289L43.3759 38.926L43.7487 25.5745L57.9485 38.8229L57.6842 48.289ZM45.113 38.5186L56.0318 45.666L56.214 39.1403L45.3781 29.0225L45.113 38.5186Z" fill="#1F2121"/>
<path d="M57.5484 31.3376L56.9772 52.3566L62.8298 48.8342L62.9975 42.6618L57.5484 31.3376Z" fill="#07BDE3"/>
<path d="M56.0785 53.6106L56.778 27.916L63.817 42.5944L63.6408 49.0667L56.0785 53.6106ZM58.2882 34.7456L57.8432 51.0913L61.9569 48.6196L62.1168 42.7465L58.2882 34.7456Z" fill="#1F2121"/>
<path d="M27.4508 13.0167L29.7654 15.8099L27.1904 22.3337L22.0583 24.1568L27.4508 13.0167Z" fill="#CE4131"/>
<path d="M20.6107 25.2724L27.265 11.5882L30.7042 15.7408L27.9672 22.6698L20.6107 25.2724ZM27.6789 14.4429L23.5125 23.0423L26.4552 21.9983L28.8733 15.8774L27.6789 14.4429Z" fill="#1F2121"/>
<path d="M38.1668 13.1425L35.697 15.9006L37.9064 22.4595L42.9595 24.3574L38.1668 13.1425Z" fill="#CE4131"/>
<path d="M44.3405 25.4953L37.1326 22.7859L34.7844 15.8197L38.4545 11.7192L44.3405 25.4953ZM38.6816 22.1369L41.5647 23.2236L37.881 14.5666L36.6069 15.9831L38.6816 22.1369Z" fill="#1F2121"/>
<path d="M63.0837 42.6501L57.1937 42.6072L57.0701 46.9988L62.96 47.0417L63.0837 42.6501Z" fill="#CE4131"/>
<path d="M63.8413 47.5754L56.2092 47.5197L56.3626 42.0742L63.9947 42.1298L63.8413 47.5754ZM57.9542 46.4792L62.1059 46.5095L62.2 43.17L58.0483 43.1397L57.9542 46.4792Z" fill="#1F2121"/>
<path d="M7.33847 42.0454L1.44855 42.0024L1.32488 46.394L7.2148 46.437L7.33847 42.0454Z" fill="#CE4131"/>
<path d="M8.07111 46.9704L0.438946 46.9148L0.592316 41.4692L8.22448 41.5249L8.07111 46.9704ZM2.20883 45.8745L6.36054 45.9047L6.4546 42.5652L2.30289 42.5349L2.20883 45.8745Z" fill="#1F2121"/>
<path d="M33.81 2.48566L32.1541 2.4729L31.8656 13.4792L33.5215 13.492L33.81 2.48566Z" fill="#1F2121"/>
<path d="M33.5994 14.6382L31.8665 14.6255L31.8121 16.5625L33.545 16.5751L33.5994 14.6382Z" fill="#1F2121"/>
<path d="M33.5404 18.0354L31.8019 18.0227L31.7626 19.4209L33.5011 19.4336L33.5404 18.0354Z" fill="#1F2121"/>
<path d="M16.5843 30.5281L16.4972 33.6237L13.6255 36.0226L9.9954 36.2666L16.5843 30.5281Z" fill="#07BDE3"/>
<path d="M8.15484 36.93L17.4908 28.8216L17.3509 33.7956L14.0728 36.5223L8.15484 36.93ZM15.6572 32.2501L11.7654 35.6186L13.133 35.5234L15.6233 33.4523L15.6572 32.2501Z" fill="#1F2121"/>
<path d="M48.3656 30.8955L48.2785 33.9911L51.0142 36.431L54.654 36.7281L48.3656 30.8955Z" fill="#07BDE3"/>
<path d="M56.4203 37.421L50.5277 36.9271L47.4043 34.1537L47.5443 29.1797L56.4203 37.421ZM51.5233 35.9423L52.885 36.0575L49.1843 32.6336L49.1505 33.8358L51.5233 35.9423Z" fill="#1F2121"/>
</svg>
