<svg width="400" height="801" viewBox="0 0 400 801" fill="none" xmlns="http://www.w3.org/2000/svg">
<g clip-path="url(#clip0)">
<rect width="400" height="800" transform="translate(0 0.6875)" fill="#000324"/>
<g opacity="0.4">
<g opacity="0.25">
<path opacity="0.25" d="M421.8 826.653C331.504 826.653 245.96 790.325 181.802 724.935C117.644 659.544 82 572.357 82 480.326C82 388.295 117.644 301.108 181.802 235.718C245.96 170.328 331.504 134 421.8 134C512.096 134 597.641 170.328 661.798 235.718C725.956 301.108 761.599 388.295 761.599 480.326C761.599 572.357 725.956 659.544 661.798 724.935C597.641 790.325 512.096 826.653 421.8 826.653Z" fill="#F15F4C"/>
</g>
<g opacity="0.25">
<path opacity="0.25" d="M421.8 795.167C339.82 795.167 261.404 762.472 203.187 703.136C144.97 643.8 112.891 565.09 112.891 480.324C112.891 395.559 144.97 316.848 203.187 257.513C261.404 198.177 338.632 165.482 421.8 165.482C503.779 165.482 582.194 198.177 640.412 257.513C698.629 316.848 730.709 395.559 730.709 480.324C730.709 565.09 698.629 643.8 640.412 703.136C582.194 762.472 503.779 795.167 421.8 795.167Z" fill="#F15F4C"/>
</g>
<g opacity="0.25">
<path opacity="0.25" d="M421.8 764.896C346.949 764.896 278.038 735.834 224.573 681.342C172.296 628.061 142.594 556.615 142.594 480.327C142.594 404.038 171.108 333.804 224.573 279.312C276.85 226.031 346.949 195.757 421.8 195.757C496.652 195.757 565.562 224.82 619.027 279.312C671.304 332.593 701.007 404.038 701.007 480.327C701.007 556.615 672.492 626.85 619.027 681.342C565.562 735.834 495.463 764.896 421.8 764.896Z" fill="#F15F4C"/>
</g>
<path d="M421.797 729.777C556.97 729.777 666.549 618.094 666.549 480.325C666.549 342.557 556.97 230.874 421.797 230.874C286.625 230.874 177.045 342.557 177.045 480.325C177.045 618.094 286.625 729.777 421.797 729.777Z" fill="#F15F4C"/>
<path d="M390.906 347.123C404.686 347.123 415.856 335.739 415.856 321.694C415.856 307.65 404.686 296.265 390.906 296.265C377.127 296.265 365.958 307.65 365.958 321.694C365.958 335.739 377.127 347.123 390.906 347.123Z" fill="#CE4131"/>
<path d="M440.809 532.396C470.993 532.396 495.463 507.457 495.463 476.693C495.463 445.929 470.993 420.99 440.809 420.99C410.624 420.99 386.154 445.929 386.154 476.693C386.154 507.457 410.624 532.396 440.809 532.396Z" fill="#CE4131"/>
<path d="M368.332 645.014C389.331 645.014 406.353 627.665 406.353 606.264C406.353 584.864 389.331 567.515 368.332 567.515C347.334 567.515 330.312 584.864 330.312 606.264C330.312 627.665 347.334 645.014 368.332 645.014Z" fill="#CE4131"/>
<path d="M289.918 423.411C293.855 423.411 297.047 420.158 297.047 416.146C297.047 412.133 293.855 408.88 289.918 408.88C285.981 408.88 282.79 412.133 282.79 416.146C282.79 420.158 285.981 423.411 289.918 423.411Z" fill="#CE4131"/>
</g>
</g>
<defs>
<clipPath id="clip0">
<rect width="400" height="800" fill="white" transform="translate(0 0.6875)"/>
</clipPath>
</defs>
</svg>
