<svg width="260" height="260" viewBox="0 0 260 260" fill="none" xmlns="http://www.w3.org/2000/svg">
<g opacity="0.25">
<path opacity="0.25" d="M130 260C95.316 260 62.5878 246.439 38.0742 221.926C13.5607 197.412 0 164.684 0 130C0 95.316 13.5607 62.5878 38.0742 38.0742C62.5878 13.5607 95.316 0 130 0C164.684 0 197.412 13.5607 221.926 38.0742C246.439 62.5878 260 95.316 260 130C260 164.684 246.439 197.412 221.926 221.926C197.412 246.439 164.684 260 130 260Z" fill="#F15F4C"/>
</g>
<g opacity="0.25">
<path opacity="0.25" d="M130 248.265C98.4454 248.265 68.7161 236.008 46.2889 213.581C23.992 191.284 11.6048 161.555 11.6048 129.87C11.6048 98.1847 23.8616 68.5859 46.2889 46.1586C68.7161 23.9921 98.315 11.605 130 11.605C161.685 11.605 191.284 23.8617 213.711 46.289C236.008 68.7163 248.265 98.3151 248.265 130C248.265 161.685 236.008 191.284 213.581 213.711C191.284 236.008 161.555 248.265 130 248.265Z" fill="#F15F4C"/>
</g>
<g opacity="0.25">
<path opacity="0.25" d="M130 236.529C101.575 236.529 74.7141 225.446 54.6339 205.366C34.5537 185.286 23.4704 158.425 23.4704 130C23.4704 101.575 34.4233 74.714 54.6339 54.6337C74.7141 34.5535 101.575 23.4702 130 23.4702C158.425 23.4702 185.286 34.5535 205.366 54.6337C225.446 74.714 236.53 101.575 236.53 130C236.53 158.425 225.446 185.286 205.366 205.366C185.155 225.446 158.425 236.529 130 236.529Z" fill="#F15F4C"/>
</g>
<path d="M130 223.882C181.849 223.882 223.882 181.849 223.882 130C223.882 78.1507 181.849 36.1184 130 36.1184C78.1506 36.1184 36.1183 78.1507 36.1183 130C36.1183 181.849 78.1506 223.882 130 223.882Z" fill="#F15F4C"/>
<path d="M118.134 79.5386C123.391 79.5386 127.653 75.277 127.653 70.02C127.653 64.7631 123.391 60.5015 118.134 60.5015C112.878 60.5015 108.616 64.7631 108.616 70.02C108.616 75.277 112.878 79.5386 118.134 79.5386Z" fill="#CE4131"/>
<path d="M166.77 101.444C170.083 101.444 172.768 98.7591 172.768 95.4465C172.768 92.1339 170.083 89.4485 166.77 89.4485C163.458 89.4485 160.772 92.1339 160.772 95.4465C160.772 98.7591 163.458 101.444 166.77 101.444Z" fill="#CE4131"/>
<path d="M137.563 149.298C149.229 149.298 158.686 139.841 158.686 128.175C158.686 116.509 149.229 107.051 137.563 107.051C125.897 107.051 116.439 116.509 116.439 128.175C116.439 139.841 125.897 149.298 137.563 149.298Z" fill="#CE4131"/>
<path d="M181.244 155.687C183.548 155.687 185.416 153.819 185.416 151.515C185.416 149.21 183.548 147.342 181.244 147.342C178.939 147.342 177.071 149.21 177.071 151.515C177.071 153.819 178.939 155.687 181.244 155.687Z" fill="#CE4131"/>
<path d="M204.584 119.047C209.625 119.047 213.711 114.961 213.711 109.92C213.711 104.879 209.625 100.792 204.584 100.792C199.543 100.792 195.456 104.879 195.456 109.92C195.456 114.961 199.543 119.047 204.584 119.047Z" fill="#CE4131"/>
<path d="M109.659 191.675C117.652 191.675 124.132 185.195 124.132 177.202C124.132 169.208 117.652 162.729 109.659 162.729C101.666 162.729 95.1855 169.208 95.1855 177.202C95.1855 185.195 101.666 191.675 109.659 191.675Z" fill="#CE4131"/>
<path d="M139.649 208.626C142.385 208.626 144.604 206.407 144.604 203.671C144.604 200.934 142.385 198.716 139.649 198.716C136.912 198.716 134.694 200.934 134.694 203.671C134.694 206.407 136.912 208.626 139.649 208.626Z" fill="#CE4131"/>
<path d="M156.6 177.593C158.544 177.593 160.12 176.017 160.12 174.072C160.12 172.128 158.544 170.552 156.6 170.552C154.655 170.552 153.079 172.128 153.079 174.072C153.079 176.017 154.655 177.593 156.6 177.593Z" fill="#CE4131"/>
<path d="M156.209 69.7594C159.521 69.7594 162.207 67.074 162.207 63.7614C162.207 60.4488 159.521 57.7634 156.209 57.7634C152.896 57.7634 150.211 60.4488 150.211 63.7614C150.211 67.074 152.896 69.7594 156.209 69.7594Z" fill="#CE4131"/>
<path d="M79.7995 108.486C81.3837 108.486 82.668 107.201 82.668 105.617C82.668 104.033 81.3837 102.748 79.7995 102.748C78.2152 102.748 76.9308 104.033 76.9308 105.617C76.9308 107.201 78.2152 108.486 79.7995 108.486Z" fill="#CE4131"/>
</svg>
