<svg width="729" height="351" viewBox="0 0 729 351" fill="none" xmlns="http://www.w3.org/2000/svg">
<path fill-rule="evenodd" clip-rule="evenodd" d="M350.677 233.808C450.89 198.714 552.453 168.306 653.88 139.281C682.175 133.212 688.455 113.14 682.783 95.5931C677.11 77.9858 659.283 62.4215 639.497 66.2074C571.563 75.4017 503.562 84.9566 435.898 95.6532C368.167 106.35 300.504 118.248 233.043 130.447C207.044 154.725 181.113 179.544 155.317 204.963C126.483 222.27 97.1753 239.817 68.4757 257.845C45.8537 272.088 24.042 287.111 1.41992 301.774C8.30783 317.338 15.0607 332.421 21.9486 347.805C31.4026 348.767 40.9241 349.668 50.3781 350.57C150.253 309.225 249.79 269.083 350.677 233.808Z" fill="#CCCCCC"/>
<path fill-rule="evenodd" clip-rule="evenodd" d="M350.677 233.808C450.89 198.714 552.453 168.306 653.881 139.281C682.175 133.212 688.455 113.14 682.783 95.5932C679.946 86.8195 674.139 78.5867 666.576 72.998C579.126 101.843 492.015 132.31 405.511 165.001C273.56 214.879 143.027 269.864 12.8998 327.614C15.9386 334.405 18.9774 341.135 21.9487 347.866C31.4026 348.827 40.9242 349.728 50.3782 350.63C150.253 309.225 249.79 269.083 350.677 233.808Z" fill="#BFBFBF"/>
<path fill-rule="evenodd" clip-rule="evenodd" d="M653.948 139.221C676.908 134.293 685.416 120.111 684.741 105.569C586.487 133.332 488.03 162.537 390.992 196.49C293.278 230.683 196.847 269.744 100.214 310.127C95.082 318.78 90.0173 327.374 84.9527 336.027C107.777 326.773 130.602 317.518 153.427 308.444C158.964 321.244 161.057 333.623 166.73 346.303C290.847 299.55 268.225 325.09 305.703 309.766C343.249 294.442 381.808 274.311 420.029 260.61C411.521 253.579 381.876 245.646 373.435 238.495C363.913 237.654 354.392 236.753 344.938 235.791C352.703 233.027 360.469 230.323 368.235 227.679C462.707 195.048 558.395 166.503 653.948 139.221Z" fill="#B3B3B3"/>
<path fill-rule="evenodd" clip-rule="evenodd" d="M17.019 346.964C27.2833 348.346 37.4801 349.668 47.7445 350.93C51.4585 351.411 53.687 349.368 54.9025 346.063C58.6841 335.426 62.6007 324.79 66.5174 314.213C68.0705 310.007 65.707 305.259 60.4398 304.899C42.9499 303.456 25.4601 301.954 7.97018 300.392C1.08228 299.791 -0.876048 302.735 1.01475 308.624C4.66129 319.922 8.37535 331.16 12.0894 342.397C12.8322 344.741 13.9127 346.544 17.019 346.964Z" fill="#021F1F"/>
<path fill-rule="evenodd" clip-rule="evenodd" d="M360.672 285.308C409.697 285.669 458.655 285.729 507.546 285.489C518.216 285.428 526.252 278.818 525.306 271.186C525.036 268.843 524.698 266.439 524.428 264.035C462.234 262.052 399.973 259.588 337.644 256.523C338.252 261.091 338.792 265.718 339.333 270.225C340.346 278.578 350.002 285.248 360.672 285.308Z" fill="#021F1F"/>
<path fill-rule="evenodd" clip-rule="evenodd" d="M516.73 283.566C533.612 277.316 550.562 271.186 567.579 264.997C567.511 263.675 567.376 262.293 567.376 260.85C566.093 261.571 564.675 261.932 562.987 261.992C550.022 262.353 537.124 262.593 524.226 262.954C524.564 265.718 524.901 268.482 525.239 271.247C525.914 276.415 522.47 281.042 516.73 283.566Z" fill="#B3B3B3"/>
<path fill-rule="evenodd" clip-rule="evenodd" d="M693.317 119.811C714.791 109.775 695.141 67.7097 676.908 70.7745L665.563 72.2768C683.391 84.6561 692.102 111.398 676.705 127.503L693.317 119.811Z" fill="#999999"/>
<path fill-rule="evenodd" clip-rule="evenodd" d="M306.446 249.552C301.989 251.175 297.465 252.798 293.076 254.42C331.634 256.343 370.193 258.206 408.684 259.648C447.176 261.03 485.734 262.052 524.226 262.953C538.609 262.953 553.06 263.013 567.444 263.013C601.411 247.149 635.31 231.524 669.48 216.741C703.514 202.019 689.941 182.428 724.178 168.727C691.224 164.821 706.08 166.263 673.194 161.876C639.7 157.189 615.592 144.629 596.886 127.563C564.27 135.735 531.789 144.088 499.24 152.682C499.375 163.258 499.51 173.895 499.713 184.471C467.367 194.747 435.021 205.023 402.877 215.9C370.666 226.717 338.522 238.075 306.446 249.552Z" fill="#CCCCCC"/>
<path fill-rule="evenodd" clip-rule="evenodd" d="M574.061 176.178C553.263 171.251 515.852 168.066 499.24 152.622C499.375 163.439 499.578 174.255 499.713 185.012C527.129 187.776 554.546 190.3 582.03 192.764C582.03 187.897 584.393 178.642 574.061 176.178Z" fill="#B3B3B3"/>
<path fill-rule="evenodd" clip-rule="evenodd" d="M658.472 80.5098C657.054 79.4882 655.501 78.4666 653.88 77.5051C645.777 78.6469 637.741 79.7887 629.705 80.9305C621.602 82.0722 613.566 83.2741 605.462 84.476C606.678 85.6778 607.758 86.9398 608.771 88.1417C617.01 86.8196 625.316 85.5577 633.622 84.2356C641.86 82.9736 650.099 81.7718 658.472 80.5098Z" fill="#6200DF"/>
<path fill-rule="evenodd" clip-rule="evenodd" d="M663.132 84.9564C662.186 83.8747 661.106 82.8532 659.958 81.7715C651.652 83.0334 643.279 84.4156 634.973 85.7377C626.666 87.0597 618.293 88.3818 609.987 89.7038C610.932 90.9057 611.878 92.1677 612.688 93.4897C621.062 92.0475 629.435 90.5451 637.944 89.163C646.385 87.7207 654.758 86.3386 663.132 84.9564Z" fill="#6200DF"/>
<path fill-rule="evenodd" clip-rule="evenodd" d="M666.508 89.5837C665.833 88.502 665.09 87.4203 664.28 86.2786C655.838 87.7208 647.397 89.163 638.956 90.6053C630.583 92.0475 622.142 93.5499 613.701 95.0522C614.444 96.3142 615.051 97.5761 615.727 98.8982C624.168 97.3358 632.609 95.7132 641.05 94.1508C649.558 92.6485 658.067 91.1461 666.508 89.5837Z" fill="#6200DF"/>
<path fill-rule="evenodd" clip-rule="evenodd" d="M668.939 94.4515C668.467 93.3097 667.926 92.1078 667.319 91.0261C658.81 92.5886 650.369 94.2111 641.793 95.7735C633.352 97.3359 624.911 98.9585 616.402 100.581C616.875 101.903 617.347 103.225 617.685 104.607C626.261 102.925 634.77 101.182 643.278 99.4993C651.922 97.7566 660.431 96.1341 668.939 94.4515Z" fill="#6200DF"/>
<path fill-rule="evenodd" clip-rule="evenodd" d="M515.042 244.625L457.507 239.096L400.311 246.007L523.213 255.502L532.734 256.223L515.042 244.625Z" fill="#6200DF"/>
<path fill-rule="evenodd" clip-rule="evenodd" d="M293.076 254.36C338.86 256.884 384.712 259.228 430.429 261.03C476.078 262.773 521.862 263.975 567.579 264.996L566.836 258.867L532.802 256.223L523.28 255.502L331.229 240.719C318.399 245.286 305.771 249.793 293.076 254.36Z" fill="#6200DF"/>
<path fill-rule="evenodd" clip-rule="evenodd" d="M17.0191 346.964C27.2835 348.346 37.4803 349.668 47.7447 350.93C51.4588 351.411 53.7547 349.368 54.9027 346.063C55.1053 345.582 55.2404 345.101 55.4429 344.62C45.5162 343.358 35.657 342.036 25.8654 340.714C22.8266 340.294 21.6786 338.431 20.9358 336.207C17.2217 325.03 13.5077 313.792 9.8611 302.555C9.59099 301.834 9.45592 301.173 9.38839 300.572C8.91569 300.572 8.44299 300.512 8.03782 300.452C1.1499 299.851 -0.808423 302.795 1.08238 308.685C4.72893 319.982 8.443 331.22 12.1571 342.457C12.8324 344.741 13.9128 346.543 17.0191 346.964Z" fill="#502786"/>
<path fill-rule="evenodd" clip-rule="evenodd" d="M17.019 346.964C27.2833 348.346 37.4801 349.668 47.7445 350.93C51.4585 351.411 53.687 349.368 54.9025 346.063C58.6841 335.426 62.6007 324.79 66.5174 314.213C68.0705 310.007 65.707 305.259 60.4398 304.899C42.9499 303.456 25.4601 301.954 7.97018 300.392C1.08228 299.791 -0.876048 302.735 1.01475 308.624C4.66129 319.922 8.37535 331.16 12.0894 342.397C12.8322 344.741 13.9127 346.544 17.019 346.964ZM13.9802 305.8C27.6885 307.002 41.3968 308.084 55.1051 309.225C59.2243 309.586 61.1151 313.252 59.8321 316.557C56.7257 324.85 53.7545 333.203 50.7157 341.556C49.7703 344.14 48.0146 345.642 45.0433 345.282C37.0074 344.26 28.9715 343.178 21.0032 342.157C18.5722 341.796 17.6943 340.414 17.154 338.611C14.2503 329.837 11.4141 321.064 8.51041 312.23C7.09232 307.663 8.57794 305.259 13.9802 305.8Z" fill="#6200DF"/>
<path fill-rule="evenodd" clip-rule="evenodd" d="M360.672 285.308C409.697 285.669 458.655 285.729 507.546 285.488C516.595 285.428 523.685 280.741 525.104 274.732C524.226 274.792 523.348 274.852 522.402 274.852C473.444 274.912 424.486 274.732 375.46 274.251C364.723 274.131 355.067 267.46 354.054 259.228C353.986 258.627 353.919 258.026 353.851 257.425C348.449 257.124 342.979 256.884 337.644 256.583C338.252 261.151 338.792 265.778 339.333 270.285C340.346 278.578 350.002 285.248 360.672 285.308Z" fill="#502786"/>
<path fill-rule="evenodd" clip-rule="evenodd" d="M500.591 280.681C455.887 280.741 411.183 280.741 366.479 280.32C356.687 280.2 347.909 274.131 346.963 266.619C346.558 263.434 346.153 260.249 345.748 257.064C343.047 256.884 340.346 256.764 337.577 256.583C338.185 261.151 338.725 265.778 339.265 270.285C340.278 278.638 349.935 285.248 360.604 285.368C409.63 285.729 458.588 285.789 507.479 285.549C518.148 285.488 526.184 278.878 525.239 271.246C524.969 268.903 524.631 266.499 524.361 264.095C521.66 264.035 518.958 263.915 516.257 263.795C516.392 265.117 516.595 266.379 516.73 267.701C517.608 274.672 510.315 280.681 500.591 280.681Z" fill="#6200DF"/>
<path fill-rule="evenodd" clip-rule="evenodd" d="M722.827 179.544C726.541 178.102 729.31 174.556 728.972 171.611C728.635 168.727 725.191 167.525 721.477 168.967C686.227 182.669 698.855 202.319 663.875 217.042C628.76 231.825 601.681 242.942 566.769 258.807L567.512 264.936L673.869 222.751C709.389 208.809 687.577 193.485 722.827 179.544Z" fill="#6200DF"/>
<path fill-rule="evenodd" clip-rule="evenodd" d="M403.89 259.949C402.134 259.889 400.446 259.769 398.758 259.708C399.501 265.778 400.243 271.787 401.054 277.857C402.742 277.857 404.363 277.917 406.118 277.917C405.376 271.907 404.633 265.898 403.89 259.949Z" fill="#6200DF"/>
<path fill-rule="evenodd" clip-rule="evenodd" d="M376.136 258.747C374.38 258.627 372.692 258.567 371.004 258.507C371.814 264.937 372.624 271.367 373.435 277.736C375.123 277.736 376.744 277.736 378.499 277.797C377.689 271.427 376.946 265.057 376.136 258.747Z" fill="#6200DF"/>
<path fill-rule="evenodd" clip-rule="evenodd" d="M419.962 277.916C419.219 272.147 418.544 266.378 417.801 260.549C416.045 260.489 414.357 260.429 412.669 260.309C413.411 266.198 414.154 272.087 414.897 277.916C416.518 277.916 418.206 277.916 419.962 277.916Z" fill="#6200DF"/>
<path fill-rule="evenodd" clip-rule="evenodd" d="M392.343 277.797C391.6 271.667 390.789 265.477 390.047 259.288C388.291 259.228 386.603 259.107 384.914 259.047C385.725 265.297 386.467 271.547 387.278 277.797C388.899 277.797 390.587 277.797 392.343 277.797Z" fill="#6200DF"/>
<path fill-rule="evenodd" clip-rule="evenodd" d="M461.357 277.856C460.682 272.568 460.006 267.34 459.398 262.052C457.643 262.052 455.954 261.992 454.266 261.872C454.942 267.22 455.617 272.568 456.292 277.856C457.98 277.916 459.601 277.856 461.357 277.856Z" fill="#6200DF"/>
<path fill-rule="evenodd" clip-rule="evenodd" d="M433.738 277.917C433.062 272.328 432.32 266.619 431.644 261.03C429.889 261.03 428.2 260.97 426.58 260.91C427.323 266.619 427.998 272.268 428.741 277.917C430.361 277.917 431.982 277.917 433.738 277.917Z" fill="#6200DF"/>
<path fill-rule="evenodd" clip-rule="evenodd" d="M475.132 277.796C474.524 272.688 473.849 267.641 473.241 262.533C471.486 262.473 469.797 262.472 468.177 262.352C468.785 267.46 469.46 272.628 470.135 277.796C471.756 277.856 473.444 277.856 475.132 277.796Z" fill="#6200DF"/>
<path fill-rule="evenodd" clip-rule="evenodd" d="M488.976 277.736C488.368 272.869 487.76 267.941 487.153 262.953C485.397 262.953 483.709 262.893 482.088 262.833C482.696 267.821 483.371 272.809 483.979 277.796C485.532 277.796 487.22 277.796 488.976 277.736Z" fill="#6200DF"/>
<path fill-rule="evenodd" clip-rule="evenodd" d="M447.581 277.917C446.906 272.448 446.23 267.04 445.555 261.571C443.799 261.571 442.111 261.451 440.423 261.391C441.098 266.919 441.774 272.448 442.517 277.917C444.137 277.917 445.825 277.977 447.581 277.917Z" fill="#6200DF"/>
<path fill-rule="evenodd" clip-rule="evenodd" d="M440.423 261.391C437.452 261.271 434.548 261.211 431.644 261.03C432.319 266.619 433.062 272.328 433.738 277.916C436.439 276.835 439.275 275.693 442.044 274.551C441.503 270.225 440.963 265.838 440.423 261.391Z" fill="#021F1F"/>
<path fill-rule="evenodd" clip-rule="evenodd" d="M426.512 260.85C423.541 260.73 420.637 260.61 417.733 260.49C418.476 266.319 419.219 272.088 419.894 277.857C422.595 276.775 425.431 275.633 428.2 274.491C427.66 269.984 427.12 265.417 426.512 260.85Z" fill="#021F1F"/>
<path fill-rule="evenodd" clip-rule="evenodd" d="M398.758 259.708C395.787 259.588 392.883 259.468 389.979 259.288C390.722 265.477 391.532 271.607 392.275 277.796C394.976 276.715 397.812 275.573 400.581 274.431C400.041 269.564 399.433 264.636 398.758 259.708Z" fill="#021F1F"/>
<path fill-rule="evenodd" clip-rule="evenodd" d="M384.914 259.107C381.943 258.987 379.039 258.867 376.136 258.747C376.946 265.117 377.756 271.487 378.499 277.796C381.2 276.655 384.036 275.573 386.805 274.431C386.197 269.263 385.522 264.215 384.914 259.107Z" fill="#021F1F"/>
<path fill-rule="evenodd" clip-rule="evenodd" d="M412.669 260.249C409.697 260.129 406.794 260.069 403.89 259.949C404.633 265.898 405.376 271.907 406.118 277.917C408.819 276.775 411.656 275.633 414.424 274.491C413.817 269.744 413.276 264.997 412.669 260.249Z" fill="#021F1F"/>
<path fill-rule="evenodd" clip-rule="evenodd" d="M482.02 262.833C479.049 262.713 476.145 262.653 473.242 262.533C473.849 267.641 474.525 272.749 475.132 277.796C477.834 276.715 480.67 275.573 483.438 274.491C482.966 270.645 482.493 266.739 482.02 262.833Z" fill="#021F1F"/>
<path fill-rule="evenodd" clip-rule="evenodd" d="M495.931 263.254C492.96 263.194 490.056 263.074 487.085 262.953C487.693 267.941 488.3 272.869 488.908 277.736C491.744 276.655 494.513 275.573 497.282 274.431C496.877 270.705 496.404 266.98 495.931 263.254Z" fill="#021F1F"/>
<path fill-rule="evenodd" clip-rule="evenodd" d="M454.266 261.872C451.295 261.812 448.391 261.691 445.488 261.571C446.163 267.04 446.838 272.448 447.513 277.917C450.215 276.835 453.051 275.693 455.819 274.551C455.347 270.345 454.807 266.138 454.266 261.872Z" fill="#021F1F"/>
<path fill-rule="evenodd" clip-rule="evenodd" d="M468.177 262.413C465.206 262.292 462.302 262.172 459.398 262.112C460.073 267.4 460.749 272.628 461.357 277.917C464.058 276.775 466.894 275.693 469.663 274.551C469.19 270.465 468.65 266.439 468.177 262.413Z" fill="#021F1F"/>
<path fill-rule="evenodd" clip-rule="evenodd" d="M70.299 279.539L82.5893 272.929L69.2186 274.792C65.0318 273.229 59.3594 273.951 55.4427 276.715C50.7832 279.96 50.378 284.888 54.4973 287.652C58.2789 290.176 64.4916 290.056 69.0835 287.532C66.0447 288.373 62.0605 287.532 60.4398 286.63C53.822 282.844 61.1827 274.972 70.299 279.539Z" fill="#6200DF"/>
<path fill-rule="evenodd" clip-rule="evenodd" d="M588.58 155.987L580.68 143.247L577.641 154.545C572.036 157.069 570.55 161.816 574.535 166.203C579.194 171.371 589.728 174.015 598.034 172.152C605.598 170.41 608.704 165.542 605.665 160.795C605.935 163.559 601.951 166.263 598.98 167.044C587.095 170.349 573.657 160.915 588.58 155.987Z" fill="#6200DF"/>
<path fill-rule="evenodd" clip-rule="evenodd" d="M385.455 204.783C386.805 204.362 388.088 204.182 389.169 204.543L390.249 202.379C388.223 201.898 386.603 202.139 384.914 202.68C382.348 203.521 380.525 205.564 381.065 207.487C381.74 209.771 383.969 209.951 386.738 209.05C389.169 208.268 390.384 208.088 390.654 209.05C390.992 210.131 389.641 211.273 387.548 211.934C385.522 212.595 384.307 211.814 383.429 211.393L382.213 213.496C383.901 214.458 386.13 214.638 388.088 213.977C391.397 212.896 393.558 210.792 392.883 208.268C392.41 206.526 391.195 205.264 386.265 206.886C384.036 207.667 383.631 207.307 383.429 206.646C383.226 206.105 384.307 205.143 385.455 204.783Z" fill="#02140E"/>
<path fill-rule="evenodd" clip-rule="evenodd" d="M410.238 206.225V206.105C410.508 205.504 413.141 203.521 416.045 202.56L417.463 202.079L418.814 203.341L421.312 202.499L411.993 193.786L409.495 194.627L410.643 195.709L407.807 207.067L410.238 206.225ZM412.466 197.391L415.843 200.576L415.505 200.697C413.141 201.478 411.723 202.56 411.048 203.16L412.466 197.391Z" fill="#02140E"/>
<path fill-rule="evenodd" clip-rule="evenodd" d="M403.89 196.791L393.018 200.396L393.625 202.499L397.88 201.117L400.311 209.59L402.607 208.809L400.176 200.336L404.498 198.894L403.89 196.791Z" fill="#02140E"/>
<path fill-rule="evenodd" clip-rule="evenodd" d="M482.291 178.101L483.304 177.741C485.87 176.9 487.085 175.037 486.477 172.933C485.87 170.89 483.979 170.109 481.75 170.83L474.39 173.294L477.428 183.87L479.724 183.089L478.779 179.904C479.657 179.063 480.13 178.823 482.291 178.101ZM478.171 177.801L477.293 174.616L481.953 173.054C482.898 172.753 483.844 172.633 484.114 173.655C484.452 174.796 483.776 175.217 482.696 175.578L481.683 175.938C480.332 176.419 479.049 176.96 478.171 177.801Z" fill="#02140E"/>
<path fill-rule="evenodd" clip-rule="evenodd" d="M432.86 190.601C432.32 188.738 430.429 187.897 428.335 188.618L420.84 191.082L423.879 201.658L426.242 200.877L425.162 197.151C425.972 196.37 426.445 196.069 428.2 195.468L428.335 195.408L430.902 197.452C432.455 198.713 433.535 198.413 434.751 197.992L435.764 197.632L435.088 195.348L434.278 195.589C433.67 195.769 432.86 195.949 432.05 195.288L431.037 194.447C432.59 193.545 433.265 192.223 432.86 190.601ZM429.483 192.824L427.593 193.425C426.377 193.846 425.297 194.387 424.554 195.108L423.811 192.464L428.538 190.901C429.348 190.661 430.226 190.421 430.564 191.382C430.631 192.043 430.159 192.584 429.483 192.824Z" fill="#02140E"/>
<path fill-rule="evenodd" clip-rule="evenodd" d="M469.055 175.097L466.759 175.818L469.798 186.454L472.094 185.673L469.055 175.097Z" fill="#02140E"/>
<path fill-rule="evenodd" clip-rule="evenodd" d="M455.347 183.991C454.874 184.171 454.401 184.411 454.064 184.712L452.848 180.505L450.552 181.286L453.591 191.863L455.887 191.082L454.672 186.875C455.077 186.514 455.549 186.334 456.022 186.154C457.17 185.793 458.386 185.673 459.601 185.252C460.074 185.072 460.479 184.892 460.884 184.531L462.167 188.978L464.463 188.197L461.424 177.621L459.128 178.402L460.276 182.428C459.871 182.789 459.399 183.029 458.926 183.149C457.71 183.51 456.292 183.69 455.347 183.991Z" fill="#02140E"/>
<path fill-rule="evenodd" clip-rule="evenodd" d="M441.165 186.214C442.516 185.793 443.799 185.613 444.88 185.974L445.96 183.81C443.934 183.33 442.313 183.57 440.625 184.111C438.059 184.952 436.236 186.995 436.776 188.918C437.451 191.202 439.68 191.382 442.449 190.481C444.88 189.699 446.095 189.519 446.365 190.481C446.703 191.562 445.352 192.704 443.259 193.365C441.233 194.026 440.017 193.245 439.14 192.824L437.924 194.928C439.612 195.889 441.841 196.069 443.799 195.408C447.108 194.327 449.269 192.223 448.594 189.699C448.121 187.957 446.905 186.695 441.976 188.317C439.747 189.038 439.342 188.738 439.14 188.077C438.937 187.536 440.017 186.575 441.165 186.214Z" fill="#02140E"/>
<path fill-rule="evenodd" clip-rule="evenodd" d="M237.837 248.952L142.554 283.205L141.069 302.375L231.827 264.576L237.837 248.952Z" fill="#999999"/>
<path fill-rule="evenodd" clip-rule="evenodd" d="M174.766 275.032C172.807 275.753 170.917 276.354 169.093 276.955C169.363 280.621 169.634 284.347 169.904 288.012C171.727 287.231 173.685 286.45 175.576 285.609C175.306 282.063 175.036 278.578 174.766 275.032Z" fill="#6200DF"/>
<path fill-rule="evenodd" clip-rule="evenodd" d="M165.649 278.397C163.691 279.058 161.8 279.659 159.977 280.32C160.247 283.986 160.517 287.712 160.787 291.378C162.611 290.596 164.569 289.755 166.46 288.974C166.19 285.428 165.919 281.883 165.649 278.397Z" fill="#6200DF"/>
<path fill-rule="evenodd" clip-rule="evenodd" d="M183.814 271.787C181.856 272.448 179.965 273.049 178.142 273.65C178.412 277.316 178.682 280.981 178.952 284.647C180.776 283.866 182.734 283.085 184.625 282.243C184.355 278.818 184.085 275.333 183.814 271.787Z" fill="#6200DF"/>
<path fill-rule="evenodd" clip-rule="evenodd" d="M15.0608 301.053C36.1297 287.291 56.7934 273.71 77.9974 260.369C106.697 242.341 136.004 224.794 164.839 207.487C190.635 182.068 216.566 157.249 242.564 132.971C310.093 120.772 377.757 108.934 445.42 98.1771C513.084 87.4804 581.085 77.9256 649.019 68.6712C652.26 68.0703 655.434 67.9501 658.54 68.3106C652.665 65.8468 646.25 64.8853 639.565 66.2074C571.563 75.4017 503.562 84.9565 435.899 95.6532C368.167 106.35 300.504 118.248 233.043 130.447C207.044 154.725 181.113 179.544 155.318 204.963C126.483 222.27 97.1755 239.817 68.4758 257.845C62.2632 261.751 0.947316 300.692 1.42002 301.774C2.568 300.572 4.72891 300.091 7.90275 300.392L15.0608 301.053Z" fill="#E6E6E6"/>
<path fill-rule="evenodd" clip-rule="evenodd" d="M271.737 204.482C237.027 212.535 155.79 225.756 155.317 205.023C140.191 214.518 91.0978 238.195 85.628 242.161C79.8206 247.329 74.1482 252.617 68.4758 257.845C94.0015 261.872 119.46 265.718 144.918 269.504C176.589 257.966 208.327 246.668 240.066 235.551C231.557 226.957 280.245 213.196 271.737 204.482Z" fill="#6200DF"/>
<path fill-rule="evenodd" clip-rule="evenodd" d="M130.399 246.488C118.987 244.625 107.642 242.762 96.2974 240.779C91.773 240.238 86.7759 240.959 83.3994 243.423C78.4699 248.231 73.4727 253.038 68.5432 257.846C94.069 261.872 119.527 265.718 144.986 269.504C142.622 264.035 140.259 258.627 137.963 253.098C136.342 249.493 134.654 247.029 130.399 246.488Z" fill="#CCCCCC"/>
<path fill-rule="evenodd" clip-rule="evenodd" d="M124.322 249.733C115.205 248.231 106.022 246.728 96.9728 245.226C93.3937 244.745 89.4095 245.286 86.6409 247.329C82.6567 251.235 78.6725 255.081 74.7559 258.867C95.1495 262.112 115.543 265.237 136.004 268.182C134.113 263.855 132.223 259.468 130.399 255.021C129.049 252.137 127.766 250.093 124.322 249.733Z" fill="#021F1F"/>
<path fill-rule="evenodd" clip-rule="evenodd" d="M86.6409 247.269C82.6567 251.175 78.6725 255.021 74.7559 258.807C95.1495 262.052 115.543 265.177 136.004 268.121C135.126 266.138 134.249 264.155 133.438 262.112C117.772 259.768 102.172 257.365 86.5734 254.901C89.8823 251.596 93.3262 248.351 96.7702 245.045C93.1236 244.745 89.2745 245.346 86.6409 247.269Z" fill="#502786"/>
<path fill-rule="evenodd" clip-rule="evenodd" d="M96.2975 240.779C99.3363 241.32 102.443 241.86 105.481 242.341C117.366 235.971 146.134 221.008 162.273 212.174C160.315 211.994 155.453 209.41 155.385 204.963C154.305 205.624 153.089 206.345 151.738 207.126C133.776 217.583 91.4354 238.075 85.8306 242.041C88.9369 240.719 92.6509 240.358 96.1624 240.779C96.1624 240.779 96.23 240.779 96.2975 240.779Z" fill="#B788F3"/>
<path fill-rule="evenodd" clip-rule="evenodd" d="M240.066 235.551C281.528 221.489 303.205 214.097 344.803 200.757C363.981 194.627 373.165 183.149 375.528 177.921C382.011 163.799 378.297 171.671 383.969 159.653C388.358 150.398 377.757 140.783 366.344 143.127C325.219 151.48 301.112 156.648 260.122 165.422C228.991 168.066 208.327 174.977 205.154 156.588C188.474 172.513 171.862 188.678 155.385 205.023C155.858 225.756 237.095 212.535 271.804 204.482C280.245 213.196 231.557 226.957 240.066 235.551Z" fill="#021F1F"/>
<path fill-rule="evenodd" clip-rule="evenodd" d="M208.935 164.701C207.044 162.838 205.829 160.254 205.153 156.768C188.676 172.453 172.267 188.317 155.925 204.422L155.317 205.023C155.385 207.968 157.006 209.951 158.829 211.093C175.441 201.117 194.416 178.582 208.935 164.701Z" fill="#122E2E"/>
<path fill-rule="evenodd" clip-rule="evenodd" d="M451.903 93.1893C514.299 83.4541 576.898 74.6204 639.564 66.1472C651.044 44.5136 662.659 23.1804 674.342 2.14771C662.389 3.71013 650.504 5.21247 638.687 6.71481C637.471 8.15705 636.188 9.5392 634.837 10.9213C634.5 11.2218 634.162 11.5824 633.824 11.8828C604.044 40.6075 536.718 59.6571 463.855 75.2814C390.317 91.086 265.659 83.7546 227.1 147.273C242.564 132.971 253.841 127.743 264.916 124.618C327.177 113.681 389.439 102.984 451.903 93.1893Z" fill="#B3B3B3"/>
<path fill-rule="evenodd" clip-rule="evenodd" d="M463.855 75.2815C537.124 59.537 604.787 40.3672 634.297 11.4022C639.497 6.29422 642.063 6.29422 649.964 5.27263C659.755 4.01067 664.482 3.40973 674.274 2.14777C671.438 1.66702 668.602 1.18628 665.765 0.765625C656.582 1.96749 647.465 3.10927 638.349 4.31113C629.57 5.45291 631.663 4.13085 626.059 9.71955C596.751 38.9851 528.818 58.2751 455.347 74.0796C381.605 89.9443 257.353 82.6129 218.592 146.072C221.428 146.492 224.264 146.853 227.1 147.213C265.591 83.7547 390.317 91.0861 463.855 75.2815Z" fill="#6200DF"/>
<path fill-rule="evenodd" clip-rule="evenodd" d="M667.656 14.1665L653.273 21.2575C649.018 23.4209 647.735 24.8631 646.655 26.6058L640.713 36.7616C639.835 38.3241 639.835 40.0067 640.172 41.7494L643.751 58.215L667.656 14.1665Z" fill="#6200DF"/>
<path fill-rule="evenodd" clip-rule="evenodd" d="M160.382 347.084C175.238 346.784 184.355 336.508 184.76 324.429C185.03 314.814 185.368 305.199 185.638 295.644C166.662 303.156 147.687 310.788 128.711 318.48L130.332 324.91C133.371 337.349 145.391 347.325 160.382 347.084Z" fill="#6200DF"/>
<path fill-rule="evenodd" clip-rule="evenodd" d="M163.556 321.665C163.556 317.999 160.72 314.994 157.276 314.994C153.764 314.994 150.996 317.999 150.996 321.665C150.996 325.33 153.832 328.335 157.276 328.335C160.72 328.335 163.556 325.33 163.556 321.665Z" fill="#021F1F"/>
<path fill-rule="evenodd" clip-rule="evenodd" d="M148.294 325.691C144.31 325.811 140.394 325.871 136.409 325.991C139.651 334.825 148.7 341.556 159.707 341.435C170.984 341.255 178.074 333.864 179.087 324.91C174.901 325.03 170.781 325.09 166.662 325.27C165.312 328.275 162.745 330.498 158.626 330.979C154.575 331.46 150.118 329.357 148.294 325.691Z" fill="#021F1F"/>
<path fill-rule="evenodd" clip-rule="evenodd" d="M179.965 297.868C164.636 303.937 149.307 310.067 133.978 316.256C134.046 316.857 134.181 317.458 134.384 318.059C138.908 317.999 143.432 317.879 147.957 317.759C149.307 314.574 152.008 312.11 156.263 311.569C160.45 311.028 165.041 313.492 166.797 317.398C170.984 317.278 175.171 317.158 179.358 317.098C179.56 310.728 179.763 304.298 179.965 297.868Z" fill="#021F1F"/>
<path fill-rule="evenodd" clip-rule="evenodd" d="M567.579 264.996L293.076 254.42V257.425C293.076 259.047 294.561 260.309 296.452 260.429C325.287 261.451 567.579 277.376 567.579 264.996Z" fill="#BFBFBF"/>
<path fill-rule="evenodd" clip-rule="evenodd" d="M366.276 173.294C365.196 175.577 362.833 179.123 358.848 182.909C353.784 187.656 346.221 192.704 335.551 196.129C312.254 203.581 295.169 209.23 277.341 215.179C267.617 218.424 257.691 221.789 246.413 225.635C244.05 227.137 242.024 228.64 240.741 230.082C238.985 232.065 238.445 233.868 240.133 235.551C281.596 221.489 303.272 214.097 344.87 200.756C364.048 194.627 373.232 183.149 375.595 177.921C375.866 177.26 376.203 176.659 376.473 176.058C381.808 164.46 378.634 171.07 384.104 159.653C387.683 152.081 381.268 144.269 372.489 142.947C375.595 146.192 376.878 150.639 374.785 155.025C369.045 167.044 372.759 159.232 366.276 173.294Z" fill="#083636"/>
</svg>
