<svg width="1920" height="372" viewBox="0 0 1920 372" fill="none" xmlns="http://www.w3.org/2000/svg">
<path d="M-131.802 276.165C-151.317 264.561 -161.857 250.401 -175.691 236.252C-181.23 230.323 -244.992 212.027 -250.56 206.232C-256.562 199.987 -268.809 193.842 -271.071 186.446C-273.075 179.892 -271.214 172.291 -271.214 165.637C-271.214 157.074 -260.887 148.907 -260.887 139.625C-260.887 126.022 -256.475 112.643 -252.568 99.286C-248.779 86.3303 -245.397 73.5735 -245.397 60.3966C-245.397 51.4154 -242.927 37.1486 -235.644 29.3532C-223.996 16.8867 -203.299 8.4506 -180.854 3.5975C-164.797 0.125641 -148.408 -3.05927 -131.802 -5.52788C-112.237 -8.43632 -93.5108 -13.5565 -74.0004 -16.1031C-35.9174 -21.0739 -1.45911 -25.6741 34.718 -34.695C73.2776 -44.3099 120.732 -40.0679 161.939 -40.0679C264.311 -40.0679 367.967 -28.7824 468.444 -17.8088C582.007 -5.40607 700.01 -20.4298 814.249 -13.2034C883.65 -8.81337 955.053 -13.6466 1024.8 -12.3506C1052.72 -11.8319 1082.37 -9.78308 1109.71 -6.63657C1138.55 -3.31789 1167.85 -5.78804 1196.92 -4.41919C1222.64 -3.20783 1248.13 -0.154999 1273.94 -0.154999C1297.67 -0.154999 1323.06 -1.6998 1346.37 1.38012C1394.41 7.72841 1447.45 0.880478 1496.39 3.25636C1618.44 9.18032 1741.74 6.13786 1863.86 10.6761C1908.15 12.3222 1952.3 18.0753 1996.38 21.4218C2021.92 23.3604 2056.41 29.4741 2078.14 37.3699C2082.07 38.7995 2089.5 39.1018 2092.05 41.4635C2093.95 43.2239 2093.21 44.9535 2096.21 46.2394C2104.87 49.96 2112.76 56.7639 2115.57 62.7845C2120.14 72.5611 2116.86 84.9024 2116.86 95.0218V177.918V237.105C2116.86 253.726 2119.34 272.115 2113.71 288.446C2111.22 295.643 2110.28 312.007 2101.37 317.613C2093.03 322.865 2081.17 326.017 2069.82 328.017C2053.55 330.883 2029.19 328.359 2012.16 328.359C1991.33 328.359 1970.77 328.777 1950.34 326.909C1910.97 323.307 1875.26 317.691 1838.04 309.084C1821.89 305.349 1801.92 301.204 1787.41 295.951C1769.36 289.417 1746.94 289.306 1729.03 283.499C1707.68 276.575 1676.17 276.165 1652.16 276.165H1556.06C1539.36 276.165 1521.3 275.005 1504.85 277.018C1484.57 279.501 1464.82 278.213 1444.47 279.576C1426.05 280.811 1409.7 283.019 1392.41 286.911C1376.83 290.416 1360.1 295.808 1343.79 297.571C1288.44 303.554 1235.44 319.738 1185.92 334.861L1184.87 335.181C1174.39 338.381 1165.07 343.57 1153.74 345.927C1143.54 348.05 1133.01 351.875 1122.91 353.261C1094.61 357.144 1068.43 365.026 1041.3 370.404C1026.55 373.327 1006.62 371.342 991.239 371.342H943.478C925.775 371.342 911.127 370.653 893.995 368.271C875.951 365.763 858.169 361.103 840.066 359.146C821.024 357.087 806.212 351.427 788.432 347.462L787.681 347.295C771.991 343.797 755.615 340.146 740.957 335.352C717.546 327.695 695.628 315.825 671.108 309.937C647.693 304.315 625.901 293.592 602.836 286.911C576.38 279.247 549.161 272.472 520.509 268.489C506.078 266.483 495.115 263.884 480.062 263.884H437.034C410.79 263.884 385.702 263.538 359.869 266.187C306.94 271.613 258.231 282.323 207.979 292.283C195.362 294.784 185.005 298.039 171.692 299.533C159.956 300.849 152.872 305.332 140.424 305.332C116.964 305.332 93.8129 306.867 70.1447 306.867C53.9994 306.867 39.1195 306.593 23.2437 304.65C11.7382 303.241 0.802673 300.846 -10.4618 299.533C-22.9243 298.08 -35.4076 297.413 -47.8965 296.121C-60.5134 294.816 -73.7207 291.516 -86.4787 291.516C-100.473 291.516 -122.138 281.911 -131.802 276.165Z" fill="#1B1336"/>
</svg>
