<svg width="1920" height="312" viewBox="0 0 1920 312" fill="none" xmlns="http://www.w3.org/2000/svg">
<path opacity="0.1" d="M1927.86 56.5282C1879.67 56.3345 1831.47 63.1147 1784.24 76.6751C1638.82 118.325 1499.74 224.29 1351.71 209.567C1193.62 193.876 1057.02 43.1616 900.449 8.29199C829.394 -7.59303 755.447 1.51175 687.421 34.6378C640.05 57.4968 594.883 91.979 545.447 102.827C454.287 122.78 365.055 60.79 273.343 46.4548C187.691 33.0881 101.764 61.9524 18.4524 92.3664C12.3934 94.4973 6.1967 96.822 0 99.3403V259.353C42.413 256.253 84.5505 246.18 125.311 229.133C188.931 202.399 251.448 158.425 317.822 164.043C412.012 171.985 492.156 278.919 586.621 281.049C673.926 282.987 752.555 194.263 839.859 195.619C892.738 196.394 942.036 230.101 991.885 255.091C1183.57 350.982 1398.8 317.275 1588.42 214.022C1621.75 195.813 1654.66 175.666 1689.63 165.399C1769.23 142.346 1851.3 174.116 1928 212.86V56.5282H1927.86Z" fill="white" fill-opacity="0.68"/>
</svg>
