<svg width="1920" height="211" viewBox="0 0 1920 211" fill="none" xmlns="http://www.w3.org/2000/svg">
<path d="M0 109.371C56.2246 105.16 115.329 110.513 164.834 125.145C222.841 142.347 271.112 171.826 337.484 175.68C366.008 177.322 394.669 173.896 422.644 170.399C472.149 164.331 521.654 158.193 571.296 152.126C621.35 145.988 674.146 139.849 723.377 147.415C767.671 154.267 803.051 171.255 842.408 183.889C925.374 210.512 1030.83 217.293 1123.67 202.019C1238.86 183.104 1328.82 133.568 1444.7 115.866C1598.56 92.3119 1759.97 129.143 1920 135.781V0.164062H0V109.371Z" fill="#10062F"/>
</svg>
